<?xml version="1.0" encoding="UTF-8"?>
<svg width="82px" height="100px" viewBox="0 0 82 100" version="1.1" xmlns="http://www.w3.org/2000/svg" xmlns:xlink="http://www.w3.org/1999/xlink">
    <title>bus</title>
    <g id="分享（21.11）" stroke="none" stroke-width="1" fill="none" fill-rule="evenodd">
        <g id="路线搜索2" transform="translate(-334.000000, -291.000000)">
            <g id="编组-2" transform="translate(34.000000, 291.000000)">
                <g id="bus" transform="translate(300.000000, 0.000000)">
                    <path d="M58.8545926,0 C61.0637316,-4.05812251e-16 62.8545926,1.790861 62.8545926,4 L62.854,10 L74.9948996,10 C77.148477,10 78.9154865,11.7050286 78.992351,13.8572339 L81.7066367,89.8572339 C81.7854484,92.0639618 80.0612514,93.9169187 77.8549617,93.9973428 L77.8545926,96 C77.8545926,98.209139 76.0637316,100 73.8545926,100 L65.8545926,100 C63.6454537,100 61.8545926,98.209139 61.8545926,96 L61.854,94 L19.854,94 L19.8545926,96 C19.8545926,98.209139 18.0637316,100 15.8545926,100 L7.85459265,100 C5.64545365,100 3.85459265,98.209139 3.85459265,96 L3.854,93.996 L3.80035966,93.9951047 C1.68396847,93.8910789 -9.70509868e-13,92.1421954 -9.70779013e-13,90 C-9.70779013e-13,89.9523999 0.000849662875,89.9048036 0.00254858261,89.8572339 L2.7168343,13.8572339 C2.79369877,11.7050286 4.56070827,10 6.71428571,10 L18.854,10 L18.8545926,4 C18.8545926,1.790861 20.6454537,4.05812251e-16 22.8545926,0 L58.8545926,0 Z M56.8545926,4 L24.8545926,4 C23.7500232,4 22.8545926,4.8954305 22.8545926,6 L22.8545926,6 L22.8545926,8 C22.8545926,9.1045695 23.7500232,10 24.8545926,10 L24.8545926,10 L56.8545926,10 C57.9591621,10 58.8545926,9.1045695 58.8545926,8 L58.8545926,8 L58.8545926,6 C58.8545926,4.8954305 57.9591621,4 56.8545926,4 L56.8545926,4 Z" id="矩形-2" fill="#C06D39"></path>
                    <path d="M10.8545926,76 C14.7205859,76 17.8545926,79.1340068 17.8545926,83 C17.8545926,86.8659932 14.7205859,90 10.8545926,90 C6.9885994,90 3.85459265,86.8659932 3.85459265,83 C3.85459265,79.1340068 6.9885994,76 10.8545926,76 Z M70.8545926,76 C74.7205859,76 77.8545926,79.1340068 77.8545926,83 C77.8545926,86.8659932 74.7205859,90 70.8545926,90 C66.9885994,90 63.8545926,86.8659932 63.8545926,83 C63.8545926,79.1340068 66.9885994,76 70.8545926,76 Z M71.8545926,16 C74.0637316,16 75.8545926,17.790861 75.8545926,20 L75.8545926,68 C75.8545926,70.209139 74.0637316,72 71.8545926,72 L9.85459265,72 C7.64545365,72 5.85459265,70.209139 5.85459265,68 L5.85459265,20 C5.85459265,17.790861 7.64545365,16 9.85459265,16 L71.8545926,16 Z" id="矩形-3" fill="#FFFFFF"></path>
                </g>
            </g>
        </g>
    </g>
</svg>